<?xml version="1.0" encoding="utf-8"?><!DOCTYPE svg PUBLIC "-//W3C//DTD SVG 1.1//EN" "http://www.w3.org/Graphics/SVG/1.1/DTD/svg11.dtd"><svg xmlns="http://www.w3.org/2000/svg" xmlns:xlink="http://www.w3.org/1999/xlink"><symbol viewBox="0 0 32 32" id="img--bootstrap"><path d="M8.171 4.999a4.435 4.435 0 0 0-1.716.675 4.553 4.553 0 0 0-.95.901c-.26.343-.577 1.003-.702 1.456l-.106.377v15.727l.106.377c.124.453.441 1.113.702 1.456a4.305 4.305 0 0 0 2.003 1.426c.626.2.313.192 8.486.192 8.177 0 7.864.008 8.486-.196a4.263 4.263 0 0 0 2.003-1.422c.26-.347.581-1.007.705-1.456l.102-.377V8.408l-.106-.377c-.124-.452-.441-1.113-.701-1.456a4.552 4.552 0 0 0-.95-.901 4.978 4.978 0 0 0-1.305-.596l-.37-.102-7.732-.004c-4.251-.004-7.834.008-7.954.026zm10.538 4.16c1.192.196 2.006.588 2.538 1.222.226.268.49.8.6 1.196.068.26.079.407.083 1.056.004.683-.004.784-.083 1.052-.23.8-.732 1.414-1.543 1.89l-.279.162.2.064c.305.102.815.366 1.075.562.649.49 1.101 1.252 1.282 2.161.087.453.087 1.422-.004 1.837-.358 1.633-1.622 2.768-3.523 3.149-.728.147-.916.155-4.824.155h-3.82v-14.6l3.953.015c3.538.011 3.99.019 4.345.079zm-5.054 4.118v1.72l1.822-.015c1.709-.019 1.837-.023 2.112-.098.86-.234 1.233-.728 1.233-1.633 0-.694-.245-1.143-.777-1.407-.471-.234-.981-.283-2.983-.287h-1.407v1.72zm0 5.899v2.003l1.991-.015c2.237-.015 2.312-.023 2.863-.29.634-.309.916-.815.916-1.641 0-1.063-.422-1.652-1.395-1.946-.275-.087-.328-.087-2.327-.102l-2.048-.011v2.003z"/></symbol><symbol viewBox="0 0 32 32" id="img--css3"><path d="M16.017 21.044zM4.743 3.519L6.792 26.5l9.194 2.552 9.22-2.556 2.051-22.977H4.743zM23 8.775l-.693 7.767-.48 5.359-.042.476-5.781 1.603-5.773-1.603-.395-4.426h2.829l.201 2.248 3.142.847.008-.002h.002l3.134-.846.329-3.655h-6.579l-.056-.633-.129-1.429-.067-.756h7.081l.258-2.886H9.203l-.056-.634-.129-1.429-.067-.756h14.118l-.068.756z"/></symbol><symbol viewBox="0 0 483.4000244140625 367.8000183105469" id="img--envelope"><path d="M424.3 57.75H59.1c-32.6 0-59.1 26.5-59.1 59.1v249.6c0 32.6 26.5 59.1 59.1 59.1h365.1c32.6 0 59.1-26.5 59.1-59.1v-249.5c.1-32.6-26.4-59.2-59-59.2zm32.1 308.7c0 17.7-14.4 32.1-32.1 32.1H59.1c-17.7 0-32.1-14.4-32.1-32.1v-249.5c0-17.7 14.4-32.1 32.1-32.1h365.1c17.7 0 32.1 14.4 32.1 32.1v249.5h.1z"/><path d="M304.8 238.55l118.2-106c5.5-5 6-13.5 1-19.1-5-5.5-13.5-6-19.1-1l-163 146.3-31.8-28.4c-.1-.1-.2-.2-.2-.3-.7-.7-1.4-1.3-2.2-1.9L78.3 112.35c-5.6-5-14.1-4.5-19.1 1.1-5 5.6-4.5 14.1 1.1 19.1l119.6 106.9-119.1 111.5c-5.4 5.1-5.7 13.6-.6 19.1 2.7 2.8 6.3 4.3 9.9 4.3 3.3 0 6.6-1.2 9.2-3.6l120.9-113.1 32.8 29.3c2.6 2.3 5.8 3.4 9 3.4s6.5-1.2 9-3.5l33.7-30.2 120.2 114.2c2.6 2.5 6 3.7 9.3 3.7 3.6 0 7.1-1.4 9.8-4.2 5.1-5.4 4.9-14-.5-19.1l-118.7-112.7z"/></symbol><symbol viewBox="0 0 32 32" id="img--github"><path d="M16 5.343c-6.196 0-11.219 5.023-11.219 11.219 0 4.957 3.214 9.162 7.673 10.645.561.103.766-.244.766-.54 0-.267-.01-1.152-.016-2.088-3.12.678-3.779-1.323-3.779-1.323-.511-1.296-1.246-1.641-1.246-1.641-1.02-.696.077-.682.077-.682 1.126.078 1.72 1.156 1.72 1.156 1.001 1.715 2.627 1.219 3.265.931.102-.723.392-1.219.712-1.498-2.49-.283-5.11-1.246-5.11-5.545 0-1.226.438-2.225 1.154-3.011-.114-.285-.501-1.426.111-2.97 0 0 .941-.301 3.085 1.15.894-.25 1.854-.373 2.807-.377.953.004 1.913.129 2.809.379 2.14-1.453 3.083-1.15 3.083-1.15.613 1.545.227 2.685.112 2.969.719.785 1.153 1.785 1.153 3.011 0 4.31-2.624 5.259-5.123 5.537.404.348.761 1.03.761 2.076 0 1.5-.015 2.709-.015 3.079 0 .299.204.648.772.538 4.455-1.486 7.666-5.69 7.666-10.645 0-6.195-5.023-11.219-11.219-11.219z"/></symbol><symbol viewBox="0 0 32 32" id="img--html5"><path d="M4.665 3.411l2.063 23.176 9.258 2.574 9.284-2.578 2.065-23.172H4.664zm4.286 5.5l-.068-.763h7.107v2.842h-4.005l.259 2.911h3.746v2.842H9.649L8.951 8.91zm13.567 5.754l-.667 7.483-.043.48-5.822 1.616-5.814-1.616-.398-4.463h2.849l.202 2.267 3.163.854 3.165-.856.329-3.686h-3.485v-2.842h6.587l-.069.763zm.514-5.754l-.129 1.441-.057.639H16V8.149h7.1l-.068.762z"/></symbol><symbol viewBox="0 0 32 32" id="img--javascript_1"><path d="M9.633 7.968h3.751v10.514c0 4.738-2.271 6.392-5.899 6.392-.888 0-2.024-.148-2.764-.395l.42-3.036a6.18 6.18 0 0 0 1.925.296c1.58 0 2.567-.716 2.567-3.282V7.968zm7.008 12.785c.987.518 2.567 1.037 4.171 1.037 1.728 0 2.641-.716 2.641-1.826 0-1.012-.79-1.629-2.789-2.32-2.764-.987-4.59-2.517-4.59-4.961 0-2.838 2.394-4.985 6.293-4.985 1.9 0 3.258.37 4.245.839l-.839 3.011a7.779 7.779 0 0 0-3.455-.79c-1.629 0-2.419.765-2.419 1.604 0 1.061.913 1.53 3.085 2.369 2.937 1.086 4.294 2.616 4.294 4.985 0 2.789-2.122 5.158-6.688 5.158-1.9 0-3.776-.518-4.714-1.037l.765-3.085z"/></symbol><symbol viewBox="0 0 32 32" id="img--jquery"><path d="M16.232 24.047c-.15-.034-.295-.081-.441-.124a12.403 12.403 0 0 1-.535-.172l-.058-.021a15.198 15.198 0 0 1-.375-.139l-.105-.041c-.136-.054-.271-.11-.405-.168l-.081-.036a17.755 17.755 0 0 1-.341-.159l-.099-.047c-.089-.043-.177-.09-.264-.134-.059-.031-.118-.06-.176-.092a12.256 12.256 0 0 1-.317-.178c-.035-.02-.071-.038-.107-.059a12.24 12.24 0 0 1-.412-.252l-.111-.074a8.272 8.272 0 0 1-.293-.195c-.032-.021-.063-.045-.094-.066-.093-.066-.186-.132-.277-.2l-.123-.093a9.358 9.358 0 0 1-.25-.196l-.112-.09c-.105-.087-.209-.173-.312-.263l-.034-.028c-.111-.097-.22-.197-.328-.298l-.092-.088c-.08-.076-.158-.153-.235-.231l-.092-.092a16.615 16.615 0 0 1-.289-.306l-.014-.015c-.1-.109-.197-.221-.293-.334l-.077-.091a13.35 13.35 0 0 1-.531-.681c-2.197-2.996-2.986-7.129-1.23-10.523l-1.556 1.974c-1.994 2.866-1.746 6.595-.223 9.64.036.073.074.145.112.217.024.045.046.092.071.137l.044.079c.026.049.053.095.079.142.047.083.096.166.145.249a9.913 9.913 0 0 0 .252.4c.024.037.047.075.072.111.08.118.161.236.244.353l.007.009.041.056a9.157 9.157 0 0 0 .307.403c.067.085.136.169.206.253l.079.094a14.633 14.633 0 0 0 .293.333l.011.013a14.064 14.064 0 0 0 .617.629l.095.091c.105.099.211.196.319.291l.005.004.056.047c.095.082.192.164.29.245l.12.096a14.272 14.272 0 0 0 .37.287 10.275 10.275 0 0 0 .37.264l.027.019c.086.06.175.116.263.174l.114.076c.136.086.273.171.412.253l.114.064c.102.059.205.117.309.174.056.03.114.059.171.088.073.038.147.078.221.115l.051.025.091.044c.116.055.233.11.351.163l.074.033c.135.059.271.116.409.17.033.014.066.026.1.039.127.049.256.098.386.143l.049.017c.142.05.286.096.43.141l.104.031c.147.044.293.097.445.125 9.643 1.759 12.444-5.795 12.444-5.795-2.352 3.065-6.528 3.873-10.485 2.974zm-3.474-7.816c.216.31.456.678.742.927.104.114.213.226.324.336l.085.084c.108.105.217.207.33.307l.014.012.003.003c.125.11.255.216.386.319l.088.069c.132.101.266.2.404.295l.012.009c.061.042.123.081.184.122.03.019.058.04.088.058.098.063.198.125.299.183l.042.024c.087.051.176.1.265.148.031.018.063.033.094.049l.185.096.028.012c.127.063.255.123.386.18l.085.035c.105.045.21.088.316.129l.135.05c.097.036.193.069.291.101l.131.042c.139.043.276.098.42.122 7.445 1.233 9.164-4.499 9.164-4.499-1.549 2.232-4.55 3.296-7.752 2.465a10.18 10.18 0 0 1-.422-.122l-.127-.041a7.908 7.908 0 0 1-.295-.102l-.133-.05a9.977 9.977 0 0 1-.317-.128l-.086-.036a9.135 9.135 0 0 1-.389-.18c-.066-.032-.13-.066-.195-.099l-.112-.058a9.766 9.766 0 0 1-.246-.139l-.059-.033c-.101-.059-.2-.12-.299-.182l-.09-.06a9.221 9.221 0 0 1-.193-.128 10.912 10.912 0 0 1-.402-.294l-.091-.071c-1.401-1.107-2.512-2.619-3.041-4.334-.554-1.778-.434-3.775.525-5.395L12.357 8.12c-1.442 2.075-1.364 4.853-.239 7.048.189.368.401.725.638 1.065zm7.848-2.567c.061.023.123.043.185.064l.082.026c.088.027.175.06.265.076 4.111.794 5.226-2.11 5.523-2.537-.977 1.406-2.618 1.744-4.632 1.255a6.084 6.084 0 0 1-1.067-.391 5.973 5.973 0 0 1-1.015-.619c-1.802-1.367-2.922-3.976-1.746-6.101l-.637.877c-.85 1.251-.933 2.805-.344 4.186.622 1.467 1.897 2.617 3.384 3.163z"/></symbol><symbol viewBox="0 0 32 32" id="img--js"><path d="M15.998 28.895a1.94 1.94 0 0 1-.969-.259l-3.086-1.826c-.46-.257-.235-.349-.083-.402.614-.213.739-.262 1.394-.635.069-.038.159-.024.231.018l2.37 1.407a.304.304 0 0 0 .287 0l9.241-5.333a.292.292 0 0 0 .141-.25V10.95a.3.3 0 0 0-.143-.255l-9.237-5.329a.29.29 0 0 0-.285 0l-9.235 5.331a.296.296 0 0 0-.146.253v10.666c0 .102.056.198.145.247l2.532 1.462c1.374.687 2.215-.122 2.215-.935V11.86c0-.149.12-.266.269-.266h1.172c.146 0 .267.117.267.266v10.53c0 1.833-.998 2.885-2.736 2.885-.534 0-.955 0-2.129-.579L5.79 23.301a1.953 1.953 0 0 1-.969-1.686V10.95c0-.693.371-1.339.969-1.684l9.242-5.34a2.023 2.023 0 0 1 1.942 0l9.241 5.34c.599.346.971.992.971 1.684v10.665c0 .693-.372 1.337-.971 1.686l-9.241 5.335a1.942 1.942 0 0 1-.973.259zm2.855-7.348c-4.045 0-4.892-1.857-4.892-3.414 0-.148.118-.266.266-.266h1.195c.133 0 .245.096.265.226.18 1.216.717 1.831 3.164 1.831 1.946 0 2.775-.441 2.775-1.473 0-.596-.234-1.037-3.26-1.334-2.528-.25-4.093-.809-4.093-2.831 0-1.865 1.572-2.977 4.207-2.977 2.961 0 4.425 1.027 4.611 3.233a.27.27 0 0 1-.267.291h-1.2a.266.266 0 0 1-.259-.209c-.288-1.28-.988-1.689-2.886-1.689-2.126 0-2.373.74-2.373 1.295 0 .673.292.869 3.161 1.248 2.84.375 4.19.907 4.19 2.902 0 2.014-1.678 3.167-4.606 3.167z"/></symbol><symbol viewBox="0 0 32 32" id="img--mail"><path d="M25.109 21.51a.495.495 0 0 1-.342-.136l-5.754-5.398a.5.5 0 1 1 .685-.728l5.754 5.398a.5.5 0 0 1-.343.864zM5.902 21.51a.5.5 0 0 1-.343-.864l5.756-5.398a.5.5 0 0 1 .685.728l-5.756 5.398a.495.495 0 0 1-.342.136z"/><path d="M28.512 26.529H2.5a2.503 2.503 0 0 1-2.5-2.5V6.982c0-1.379 1.122-2.5 2.5-2.5h26.012c1.378 0 2.5 1.121 2.5 2.5v17.047c0 1.379-1.122 2.5-2.5 2.5zM2.5 5.482c-.827 0-1.5.673-1.5 1.5v17.047c0 .827.673 1.5 1.5 1.5h26.012c.827 0 1.5-.673 1.5-1.5V6.982c0-.827-.673-1.5-1.5-1.5H2.5z"/><path d="M15.506 18.018c-.665 0-1.33-.221-1.836-.662L.83 6.155a.501.501 0 0 1-.049-.706.503.503 0 0 1 .706-.048l12.84 11.2c.639.557 1.719.557 2.357 0L29.508 5.419a.5.5 0 0 1 .658.754L17.342 17.355c-.507.442-1.171.663-1.836.663z"/></symbol><symbol viewBox="0 0 32 32" id="img--nodejs"><path d="M5.304 16.563a.265.265 0 0 0-.132-.23L2.98 15.072a.26.26 0 0 0-.121-.035h-.023a.264.264 0 0 0-.121.035L.524 16.333a.265.265 0 0 0-.133.23l.005 3.396a.13.13 0 0 0 .066.114.13.13 0 0 0 .132 0l1.302-.746a.267.267 0 0 0 .132-.23V17.51c0-.094.05-.182.132-.229l.555-.319a.272.272 0 0 1 .265 0l.554.319a.264.264 0 0 1 .132.229v1.587c0 .095.051.181.133.23l1.302.746a.13.13 0 0 0 .132 0 .133.133 0 0 0 .066-.114l.004-3.396zm11.702-4.669c-.041-.023-.091-.022-.131.002s-.065.067-.065.114v3.363a.093.093 0 0 1-.139.08l-.549-.316a.267.267 0 0 0-.265 0l-2.192 1.265a.265.265 0 0 0-.133.229v2.531c0 .095.05.182.132.229l2.192 1.266a.267.267 0 0 0 .265 0l2.193-1.266a.265.265 0 0 0 .132-.229v-6.309a.265.265 0 0 0-.136-.231l-1.305-.728zm-.203 6.437a.063.063 0 0 1-.033.057l-.753.434a.065.065 0 0 1-.066 0l-.753-.434a.065.065 0 0 1-.033-.057v-.869c0-.024.013-.046.033-.057l.753-.435a.065.065 0 0 1 .066 0l.753.435c.02.012.033.034.033.057v.869zm8.047-.892a.265.265 0 0 0 .132-.229v-.613a.264.264 0 0 0-.132-.229l-2.178-1.265a.262.262 0 0 0-.265 0l-2.192 1.265a.264.264 0 0 0-.132.229v2.53c0 .095.051.183.134.23l2.178 1.241c.08.046.179.046.26.001l1.317-.732c.041-.023.067-.067.068-.115s-.025-.092-.066-.116l-2.206-1.266a.131.131 0 0 1-.066-.115v-.793c0-.047.025-.091.066-.115l.687-.395a.135.135 0 0 1 .132 0l.687.395a.132.132 0 0 1 .066.115v.624c0 .047.025.091.066.115s.092.023.133 0l1.312-.763zM9.291 15.09a.267.267 0 0 1 .265 0l2.192 1.265a.263.263 0 0 1 .132.229v2.532a.265.265 0 0 1-.132.229l-2.192 1.266a.267.267 0 0 1-.265 0l-2.192-1.266a.264.264 0 0 1-.132-.229v-2.532c0-.095.05-.182.132-.229l2.192-1.265zm19.815 5.557a.438.438 0 0 1-.217-.058l-.69-.408c-.103-.058-.052-.078-.019-.09.137-.048.165-.059.312-.142.015-.009.036-.005.052.004l.53.315a.066.066 0 0 0 .064 0l2.067-1.193a.065.065 0 0 0 .031-.056v-2.386a.067.067 0 0 0-.032-.057l-2.066-1.192a.066.066 0 0 0-.064 0l-2.066 1.192a.066.066 0 0 0-.033.057v2.386c0 .023.013.044.032.055l.566.327c.307.154.495-.027.495-.209v-2.355a.06.06 0 0 1 .06-.059h.262a.06.06 0 0 1 .06.059v2.355c0 .41-.223.645-.612.645-.119 0-.214 0-.476-.129l-.542-.312a.436.436 0 0 1-.217-.377v-2.386c0-.155.083-.3.217-.377l2.067-1.194a.452.452 0 0 1 .434 0l2.067 1.194a.436.436 0 0 1 .217.377v2.386a.437.437 0 0 1-.217.377l-2.067 1.193a.436.436 0 0 1-.218.058zm.639-1.643c-.905 0-1.094-.415-1.094-.764 0-.033.026-.059.06-.059h.267a.06.06 0 0 1 .059.051c.04.272.16.41.708.41.435 0 .621-.099.621-.329 0-.133-.052-.232-.729-.298-.565-.056-.915-.181-.915-.633 0-.417.352-.666.941-.666.662 0 .99.23 1.031.723.002.017-.004.033-.016.046s-.027.019-.044.019h-.268a.06.06 0 0 1-.058-.047c-.064-.286-.221-.378-.645-.378-.475 0-.531.166-.531.29 0 .151.065.194.707.279.635.084.937.203.937.649 0 .45-.375.708-1.03.708zm-7.239-1.683a.052.052 0 0 1 .051 0l.421.243a.05.05 0 0 1 .026.044v.486a.05.05 0 0 1-.026.044l-.421.243a.052.052 0 0 1-.051 0l-.42-.243a.05.05 0 0 1-.025-.044v-.486c0-.018.01-.035.025-.044l.42-.243z"/></symbol><symbol viewBox="0 0 34 32" id="img--react"><path d="M19.314 15.987a2.392 2.392 0 1 1-4.784 0 2.392 2.392 0 0 1 4.784 0z"/><path d="M16.922 24.783c1.878 1.826 3.729 2.906 5.221 2.906.489 0 .952-.103 1.337-.334 1.337-.772 1.826-2.701 1.363-5.453-.077-.489-.18-.977-.309-1.492.514-.154.977-.309 1.44-.463 2.598-1.003 4.038-2.392 4.038-3.909 0-1.543-1.44-2.932-4.038-3.909-.463-.18-.926-.334-1.44-.463.129-.514.232-1.003.309-1.492.437-2.803-.051-4.758-1.389-5.53-.386-.231-.849-.334-1.337-.334-1.466 0-3.344 1.08-5.221 2.906-1.852-1.826-3.704-2.906-5.195-2.906-.489 0-.952.103-1.337.334-1.337.772-1.826 2.701-1.363 5.453.077.489.18.977.309 1.492-.514.154-.977.309-1.44.463-2.598 1.003-4.038 2.392-4.038 3.909 0 1.543 1.44 2.932 4.038 3.909.463.18.926.334 1.44.463a16.882 16.882 0 0 0-.309 1.492c-.437 2.752.051 4.707 1.363 5.453.386.232.849.334 1.337.334 1.492.051 3.344-1.029 5.221-2.829zm-1.441-3.472c.463.026.952.026 1.44.026s.977 0 1.44-.026a24.523 24.523 0 0 1-1.44 1.723 24.252 24.252 0 0 1-1.44-1.723zm-3.189-2.649c.257.437.489.849.772 1.26a27.786 27.786 0 0 1-2.263-.386c.232-.694.489-1.415.797-2.135.206.411.437.849.694 1.26zM10.8 12.463c.72-.154 1.466-.283 2.263-.386-.257.412-.514.823-.772 1.26s-.489.849-.694 1.286a17.109 17.109 0 0 1-.797-2.161zm1.415 3.524c.334-.694.694-1.389 1.106-2.083.386-.669.823-1.337 1.26-2.006a35.293 35.293 0 0 1 4.682 0c.463.669.874 1.337 1.26 2.006.412.694.772 1.389 1.106 2.083a26.922 26.922 0 0 1-1.106 2.083c-.386.669-.823 1.337-1.26 2.006a35.293 35.293 0 0 1-4.682 0 28.695 28.695 0 0 1-1.26-2.006 27.106 27.106 0 0 1-1.106-2.083zm10.057-1.389l-.694-1.286c-.257-.437-.489-.849-.772-1.26.797.103 1.543.232 2.263.386-.231.72-.489 1.44-.797 2.161zm0 2.778c.309.72.566 1.44.797 2.135-.72.154-1.466.283-2.263.386.257-.412.514-.823.772-1.26.232-.386.463-.823.694-1.26zm.591 8.925c-.206.129-.463.18-.746.18-1.26 0-2.829-1.029-4.372-2.572a26.868 26.868 0 0 0 2.186-2.701 23.619 23.619 0 0 0 3.447-.54c.129.463.206.926.283 1.389.36 2.186.077 3.755-.797 4.244zm1.338-13.555c2.881.823 4.604 2.083 4.604 3.241 0 1.003-1.183 2.006-3.266 2.804-.412.154-.874.309-1.337.437a27.01 27.01 0 0 0-1.26-3.241c.514-1.106.952-2.186 1.26-3.241zm-2.058-7.253c.283 0 .514.051.746.18.849.489 1.157 2.032.797 4.244-.077.437-.18.9-.283 1.389a33.072 33.072 0 0 0-3.447-.54 23.774 23.774 0 0 0-2.186-2.701c1.543-1.518 3.112-2.572 4.372-2.572zm-3.781 5.17c-.463-.026-.952-.026-1.44-.026s-.977 0-1.44.026c.463-.617.952-1.183 1.44-1.723.489.54.977 1.132 1.44 1.723zm-7.382-4.99c.206-.129.463-.18.746-.18 1.26 0 2.829 1.029 4.372 2.572a26.756 26.756 0 0 0-2.186 2.701 23.619 23.619 0 0 0-3.447.54c-.129-.463-.206-.926-.283-1.389-.36-2.186-.077-3.729.797-4.244zM9.643 19.228c-2.881-.823-4.604-2.083-4.604-3.241 0-1.003 1.183-2.006 3.266-2.803.412-.154.874-.309 1.337-.437a27.01 27.01 0 0 0 1.26 3.241c-.514 1.106-.952 2.212-1.26 3.241zm.54 2.829c.077-.437.18-.9.283-1.389 1.08.232 2.238.412 3.447.54a23.774 23.774 0 0 0 2.186 2.701c-1.543 1.517-3.112 2.572-4.372 2.572-.283 0-.514-.051-.746-.18-.875-.489-1.157-2.058-.797-4.244z"/></symbol></svg>